# xmcd
# 
# Track frame offsets:
#     150
#     21149
#     34502
#     52851
#     71035
#     90947
#     106669
#     127246
#     146054
#     162450
#     173853
#     203941
# 
# Disc length: 2923
# 
# Revision: 2
# Processed by: cddbd v1.5.2PL0 Copyright (c) Steve Scherf et al.
# Submitted via: fre:ac v1.0.27
# 
DISCID=a00b690c
DTITLE=Singer Viger - Ärq ei lääq
DYEAR=2003
DGENRE=Punk Rock
TTITLE0=Kogu raha eest
TTITLE1=Koduke
TTITLE2=Tunnitöö
TTITLE3=Valvuri laul
TTITLE4=Andante
TTITLE5=Punk-Fu (Võidumees)
TTITLE6=Ärq ei lääq
TTITLE7=Secondhand
TTITLE8=Kaua võib
TTITLE9=Haritlased öös
TTITLE10=Lisalugu: Koduke (electronic crew mix)
TTITLE11=Koduke video
EXTD=
EXTT0=
EXTT1=
EXTT2=
EXTT3=
EXTT4=
EXTT5=
EXTT6=Ärr ei läe (Võro keele transkriptsioon)
EXTT7=
EXTT8=
EXTT9=
EXTT10=
EXTT11=
PLAYORDER=
